<svg xmlns="http://www.w3.org/2000/svg" xmlns:xlink="http://www.w3.org/1999/xlink" id="Calque_1" x="0px" y="0px" width="1724px" height="424px" viewBox="105.825 969.825 1724 424" xml:space="preserve">
  <g>
    <g>
      <path fill="#FFFFFF" d="M876.841,1223.021c0,32.28-10.973,59.895-32.899,82.837c-21.937,22.949-48.332,34.421-79.188,34.421   c-30.854,0-57.25-11.471-79.179-34.421c-21.938-22.942-32.903-50.557-32.903-82.837c0-32.273,10.967-59.892,32.903-82.839   c21.929-22.944,48.324-34.424,79.179-34.424c30.855,0,57.252,11.479,79.188,34.424c4.815,5.05,8.794,9.839,11.93,14.371   l-130.525,136.552c11.845,7.562,25.024,11.35,39.537,11.35c20.784,0,38.679-7.818,53.672-23.458   c14.993-15.628,22.49-34.29,22.49-55.976c0-7.565-1.207-15.134-3.616-22.695l27.842-29.126   C872.983,1187.593,876.841,1204.861,876.841,1223.021z M804.012,1154.777c-11.833-7.468-24.996-11.195-39.481-11.195   c-20.769,0-38.641,7.812-53.607,23.422c-14.975,15.621-22.456,34.25-22.456,55.912c0,15.104,3.681,28.836,11.054,41.173   L804.012,1154.777z"></path>
      <path fill="#FFFFFF" d="M1176.936,1223.021c0,32.28-10.973,59.895-32.899,82.837c-21.937,22.949-48.333,34.421-79.188,34.421   c-30.855,0-57.251-11.471-79.178-34.421c-21.938-22.942-32.906-50.557-32.906-82.837c0-32.273,10.969-59.892,32.906-82.839   c21.926-22.944,48.322-34.424,79.178-34.424c30.854,0,57.25,11.479,79.188,34.424   C1165.964,1163.129,1176.936,1190.746,1176.936,1223.021z M1141.14,1223.021c0-21.938-7.449-40.659-22.339-56.171   c-14.896-15.51-32.876-23.268-53.952-23.268c-21.068,0-39.061,7.758-53.952,23.268c-14.89,15.512-22.335,34.232-22.335,56.171   c0,21.937,7.445,40.657,22.335,56.166c14.892,15.509,32.884,23.268,53.952,23.268c21.076,0,39.056-7.759,53.952-23.268   C1133.69,1263.678,1141.14,1244.956,1141.14,1223.021z"></path>
      <path fill="#FFFFFF" d="M1390.981,1273.324c0,18.912-6.936,34.8-20.793,47.662c-13.859,12.856-29.954,19.291-48.264,19.291   c-19.049,0-35.316-7.056-48.815-21.181c-13.503-14.127-20.247-31.02-20.247-50.688v-2.271h35.793   c0,10.296,3.335,18.933,9.993,25.884c6.667,6.948,14.849,10.43,24.549,10.43c8.231,0,15.628-2.586,22.168-7.759   c6.547-5.164,9.821-11.909,9.821-20.233c0-10.596-8.799-19.918-26.396-27.995c-29.645-13.608-46.159-21.676-49.537-24.204   c-17.598-12.354-26.392-28.87-26.392-49.554c0-18.912,6.87-34.797,20.608-47.659c13.741-12.854,29.645-19.291,47.724-19.291   c19.04,0,35.375,6.943,48.994,20.803c13.617,13.877,20.552,30.771,20.793,50.686h-37.471c-0.241-9.579-3.549-17.585-9.907-24.018   c-6.367-6.426-14.109-9.646-23.244-9.646c-8.402,0-15.792,2.785-22.158,8.325c-6.367,5.552-9.547,12.733-9.547,21.559   c0,10.595,8.894,20.174,26.662,28.749c30.984,14.883,47.317,22.951,49.001,24.205   C1382.098,1238.527,1390.981,1254.164,1390.981,1273.324z"></path>
      <path fill="#FFFFFF" d="M1521.138,1086.846h-35.796v-52.954h35.796V1086.846z M1521.138,1336.498h-35.796V1109.54h35.796V1336.498   z"></path>
      <path fill="#FFFFFF" d="M1753.26,1273.324c0,18.912-6.925,34.8-20.784,47.662c-13.868,12.856-29.951,19.291-48.271,19.291   c-19.043,0-35.316-7.056-48.813-21.181c-13.498-14.127-20.242-31.02-20.242-50.688v-2.271h35.794   c0,10.296,3.324,18.933,9.993,25.884c6.668,6.948,14.849,10.43,24.539,10.43c8.24,0,15.631-2.586,22.177-7.759   c6.538-5.164,9.813-11.909,9.813-20.233c0-10.596-8.801-19.918-26.389-27.995c-29.654-13.608-46.167-21.676-49.534-24.204   c-17.597-12.354-26.395-28.87-26.395-49.554c0-18.912,6.864-34.797,20.603-47.659c13.739-12.854,29.653-19.291,47.729-19.291   c19.043,0,35.377,6.943,48.994,20.803c13.61,13.877,20.545,30.771,20.784,50.686h-37.471c-0.233-9.579-3.54-17.585-9.897-24.018   c-6.368-6.426-14.115-9.646-23.244-9.646c-8.41,0-15.801,2.785-22.158,8.325c-6.369,5.552-9.546,12.733-9.546,21.559   c0,10.595,8.884,20.174,26.662,28.749c30.977,14.883,47.318,22.951,49.003,24.205   C1744.376,1238.527,1753.26,1254.164,1753.26,1273.324z"></path>
    </g>
  </g>
  <g>
    <path fill="#8DC63F" d="M595.82,1122.244c-6.005-19.675-16.16-37.753-30.713-54.12c-24.569-27.668-54.864-41.501-90.885-41.501  c-39.354,0-71.316,14.813-95.883,44.431c-24.983-29.615-56.946-44.431-95.881-44.431c-36.229,0-66.629,13.833-91.194,41.501  c-24.568,27.657-36.854,60.334-36.854,98.011v170.869c20.817,2.088,42.187,3.249,64.023,3.273v-174.144  c0-19.168,6.038-36.053,18.114-50.643c12.074-14.588,27.375-21.891,45.91-21.891c19.777,0,35.292,6.752,46.537,20.258  c11.45,13.285,17.177,30.709,17.177,52.274v161.416c22.406-4.647,43.812-10.505,64.026-17.416v-144  c0-21.343,5.622-38.768,16.86-52.274c11.662-13.506,27.381-20.258,47.162-20.258c18.32,0,33.521,7.303,45.597,21.891  c12.284,14.813,18.43,31.698,18.43,50.643v71.826C574.607,1204.423,595.729,1164.771,595.82,1122.244z"></path>
  </g>
</svg>
